<svg width="160" height="35" viewBox="0 0 160 35" fill="none" xmlns="http://www.w3.org/2000/svg">
<path fill-rule="evenodd" clip-rule="evenodd" d="M63.2982 32.3381C62.2515 33.8233 60.5572 34.7885 58.6447 34.7885C54.3048 34.7885 51.5832 30.0213 53.5214 26.1151C54.4299 23.4185 54.9307 20.7042 54.9307 18.5443C54.9307 15.8706 54.7536 14.2981 54.4189 12.961C50.6741 16.8296 48.7894 24.3627 47.795 27.7151L47.7987 27.7086C47.0683 30.1405 44.6577 31.9224 42.1976 31.9224C39.0638 31.9224 36.5112 29.3477 36.407 26.1308C36.3207 25.3784 36.2628 24.6286 36.1375 23.8818C35.2017 18.3257 30.5181 14.1019 24.8813 14.1019C18.5708 14.1019 13.455 19.3958 13.455 25.926C13.455 26.7655 13.6123 27.551 13.6123 28.3612C13.6123 31.9157 10.8278 34.7972 7.39294 34.7972C3.9581 34.7972 1.17355 31.9157 1.17355 28.3612C1.17355 26.5572 2.03766 23.8965 2.69248 22.2294C5.09104 16.1227 9.61631 10.9585 15.4141 8.43037C15.4868 8.40134 15.5595 8.37276 15.6327 8.34485C18.0873 7.30821 20.7252 6.76298 23.3733 6.76298C31.3701 6.76298 38.0448 12.3322 40.1018 19.8419C40.1458 20.0022 40.1844 20.1661 40.2189 20.3322C42.8954 13.5971 48.0893 6.77125 55.7691 6.77125C60.5052 6.77125 64.4443 10.6488 65.2678 15.765L65.2663 15.7626C65.5694 17.463 65.7297 19.2226 65.7297 21.0246C65.7297 23.9101 65.0121 29.9058 63.2982 32.3381ZM24.8813 19.9301C28.0814 19.9301 30.6756 22.6147 30.6756 25.9265V25.9347C30.6756 29.2465 28.0814 31.9309 24.8813 31.9309C21.681 31.9309 19.0869 29.2463 19.0869 25.9347V25.9265C19.0869 22.6147 21.6812 19.9301 24.8813 19.9301ZM3.86295 0.202637C5.96571 0.202637 7.67601 1.94124 7.72456 4.10518C7.72607 4.17149 7.72607 4.23691 7.72456 4.30322C7.67601 6.46715 5.96571 8.20576 3.86295 8.20576C1.75998 8.20576 0.0498936 6.46715 0.00113272 4.30322C-0.000377573 4.23691 -0.000377573 4.17149 0.00113272 4.10518C0.0496779 1.94124 1.75998 0.202637 3.86295 0.202637Z" fill="#FF6900"/>
<path d="M77.6661 25.73V11.0342H88.3143V13.7118H80.6759V16.6385H84.0385C84.8687 16.6385 85.6021 16.7146 86.2387 16.8668C86.8891 17.0052 87.4426 17.2543 87.8992 17.6141C88.4251 18.0431 88.7918 18.5551 88.9993 19.1501C89.2207 19.7313 89.3314 20.354 89.3314 21.0182C89.3176 21.7239 89.1931 22.3674 88.9578 22.9486C88.7226 23.5298 88.3489 24.0418 87.8369 24.4846C87.5187 24.7475 87.1796 24.962 86.8199 25.128C86.4601 25.2941 86.0795 25.4255 85.6782 25.5224C85.2908 25.6054 84.8895 25.6608 84.4743 25.6885C84.0731 25.7161 83.6787 25.73 83.2912 25.73H77.6661ZM80.6759 23.0731H83.2082C83.5956 23.0731 83.9762 23.0593 84.3498 23.0316C84.7234 22.9901 85.0625 22.9001 85.3669 22.7618C85.6713 22.6234 85.9135 22.4227 86.0934 22.1598C86.2733 21.8831 86.3632 21.5094 86.3632 21.039C86.3632 20.6238 86.2802 20.2986 86.1141 20.0634C85.9481 19.8281 85.7336 19.6552 85.4707 19.5445C85.2078 19.4199 84.9102 19.3438 84.5781 19.3161C84.246 19.2885 83.907 19.2746 83.5611 19.2746L80.6759 19.2954V23.0731ZM94.3688 20.52L101.551 11.0342H103.979V25.73H100.969V16.3272L93.7876 25.73H91.3591V11.0342H94.3688V20.52ZM108.666 21.2465C108.749 21.6201 108.895 21.9315 109.102 22.1806C109.324 22.4158 109.58 22.6026 109.87 22.741C110.175 22.8794 110.5 22.9763 110.846 23.0316C111.192 23.087 111.524 23.1215 111.842 23.1354C112.188 23.1492 112.555 23.1354 112.942 23.0939C113.33 23.0524 113.683 22.9624 114.001 22.824C114.333 22.6857 114.603 22.485 114.81 22.2221C115.018 21.9453 115.122 21.5855 115.122 21.1427C115.122 20.7553 115.025 20.4508 114.831 20.2294C114.651 20.008 114.416 19.842 114.125 19.7313C113.835 19.6206 113.517 19.5514 113.171 19.5237C112.838 19.496 112.527 19.4822 112.237 19.4822H110.306V17.0121H111.614C111.932 17.0121 112.264 16.9914 112.61 16.9499C112.956 16.9084 113.274 16.8253 113.565 16.7008C113.856 16.5762 114.091 16.3964 114.271 16.1611C114.464 15.9259 114.568 15.6145 114.582 15.2271C114.582 14.8673 114.492 14.5767 114.312 14.3553C114.146 14.1339 113.925 13.9609 113.648 13.8364C113.371 13.7118 113.067 13.6288 112.735 13.5873C112.416 13.5458 112.112 13.525 111.821 13.525C111.462 13.525 111.116 13.5596 110.784 13.6288C110.451 13.698 110.154 13.8018 109.891 13.9401C109.628 14.0785 109.414 14.2584 109.248 14.4798C109.081 14.7012 108.985 14.9641 108.957 15.2686H106.072C106.099 14.4245 106.279 13.7326 106.611 13.1929C106.957 12.6532 107.373 12.2173 107.857 11.8852C108.383 11.5254 109.026 11.2625 109.787 11.0965C110.562 10.9304 111.365 10.8543 112.195 10.8681C112.832 10.8681 113.468 10.9304 114.105 11.055C114.741 11.1795 115.315 11.3871 115.827 11.6777C116.339 11.9682 116.748 12.3626 117.052 12.8608C117.37 13.359 117.529 13.9817 117.529 14.7289C117.529 15.3239 117.377 15.912 117.073 16.4932C116.782 17.0606 116.346 17.5034 115.765 17.8217C116.609 18.0984 117.211 18.562 117.571 19.2124C117.945 19.8627 118.118 20.6169 118.09 21.4748C118.062 22.3328 117.855 23.0524 117.467 23.6335C117.094 24.2009 116.609 24.6575 116.014 25.0035C115.419 25.3356 114.748 25.5708 114.001 25.7092C113.267 25.8338 112.527 25.8822 111.78 25.8545C110.991 25.8268 110.251 25.73 109.559 25.5639C108.867 25.3979 108.251 25.1419 107.712 24.7959C107.172 24.4361 106.729 23.9726 106.383 23.4052C106.051 22.824 105.85 22.1045 105.781 21.2465H108.666ZM123.032 17.1367H129.238V11.0342H132.248V25.73H129.238V19.8143H123.032V25.73H120.022V11.0342H123.032V17.1367ZM145.454 11.0342V13.7118H137.961V17.1367H144.5V19.8143H137.961V23.0731H145.454V25.73H134.952V11.0342H145.454ZM149.63 18.3406C149.63 18.9633 149.707 19.5652 149.859 20.1464C150.025 20.7276 150.267 21.2396 150.585 21.6824C150.917 22.1252 151.333 22.485 151.831 22.7618C152.343 23.0247 152.952 23.1561 153.657 23.1561C154.543 23.1561 155.269 22.9624 155.837 22.575C156.418 22.1737 156.778 21.6201 156.916 20.9144H159.822C159.753 21.7308 159.538 22.4504 159.179 23.0731C158.819 23.682 158.355 24.194 157.788 24.6091C157.221 25.0243 156.577 25.3356 155.857 25.5432C155.138 25.7507 154.391 25.8545 153.616 25.8545C152.467 25.8545 151.45 25.6677 150.565 25.2941C149.693 24.9205 148.952 24.4015 148.344 23.7373C147.749 23.0731 147.299 22.2844 146.994 21.3711C146.69 20.4578 146.538 19.4545 146.538 18.3613C146.538 17.2958 146.69 16.3064 146.994 15.3931C147.313 14.466 147.776 13.6703 148.385 13.0061C148.994 12.328 149.734 11.8022 150.606 11.4286C151.492 11.0411 152.509 10.8474 153.657 10.8474C154.46 10.8474 155.214 10.9442 155.92 11.138C156.625 11.3317 157.255 11.6292 157.809 12.0305C158.362 12.4318 158.812 12.9507 159.158 13.5873C159.518 14.21 159.739 14.9572 159.822 15.829H156.916C156.764 15.1233 156.404 14.5628 155.837 14.1477C155.269 13.7326 154.543 13.525 153.657 13.525C152.952 13.525 152.343 13.6565 151.831 13.9194C151.333 14.1823 150.917 14.5421 150.585 14.9987C150.267 15.4415 150.025 15.9535 149.859 16.5347C149.707 17.1159 149.63 17.7179 149.63 18.3406Z" fill="#212121"/>
</svg>
